<svg width="123" height="62" viewBox="0 0 123 62" fill="none" xmlns="http://www.w3.org/2000/svg">
<g clip-path="url(#clip0_169_3888)">
<path d="M40.2583 24.5006H43.5351V36.1338H50.4532V39.0556H40.2583V24.5006Z" fill="#2C1B5B"/>
<path d="M52.0772 28.8203H55.1996V34.7151C55.1996 35.2976 55.3405 35.756 55.6224 36.0902C55.9042 36.4244 56.3201 36.5919 56.87 36.5925C57.1634 36.5974 57.4538 36.5325 57.7175 36.403C57.9578 36.2836 58.1717 36.1166 58.3465 35.912C58.5237 35.7011 58.6563 35.456 58.7363 35.1918C58.823 34.9159 58.8668 34.6282 58.8662 34.3388V28.8203H61.9679V39.0556H58.9726L58.8841 37.9676C58.5216 38.3828 58.0741 38.7142 57.5724 38.939C57.0397 39.1902 56.4583 39.3197 55.87 39.3181C54.6999 39.3181 53.7746 38.9687 53.0941 38.27C52.4136 37.5712 52.0747 36.5379 52.0772 35.17V28.8203Z" fill="#2C1B5B"/>
<path d="M65.0451 31.2891H63.4443V28.8203H65.0451V25.7213H68.1675V28.8203H70.7908V31.2844H68.1675V35.3216C68.1675 35.8163 68.2651 36.1983 68.4603 36.4674C68.6553 36.7375 68.9622 36.8712 69.3822 36.8712C69.6654 36.8783 69.9467 36.8226 70.2061 36.7081C70.4335 36.601 70.6512 36.4742 70.8568 36.3291L72.1138 38.2491C71.1308 39.0357 70.0611 39.4309 68.9048 39.4347C68.1816 39.4347 67.5743 39.3292 67.0828 39.1182C66.6208 38.9291 66.2116 38.6295 65.8907 38.2453C65.5762 37.8526 65.3538 37.3936 65.24 36.9024C65.1045 36.3307 65.039 35.7445 65.0451 35.1567V31.2891Z" fill="#2C1B5B"/>
<path d="M73.3501 24.5006H76.4508V29.8078C76.8068 29.3981 77.2604 29.0863 77.7691 28.9018C78.3016 28.6942 78.8675 28.5869 79.4386 28.5853C80.61 28.5853 81.5463 28.9327 82.2475 29.6277C82.9486 30.3227 83.2992 31.356 83.2992 32.7277V39.0556H80.2023V33.2091C80.2023 32.6133 80.0507 32.1477 79.7474 31.8122C79.4442 31.4767 79.0394 31.3096 78.5328 31.3109C78.2261 31.3063 77.9224 31.3711 77.6439 31.5004C77.3945 31.6152 77.1726 31.7826 76.9932 31.9913C76.8174 32.1991 76.6845 32.4401 76.6024 32.7002C76.5143 32.979 76.4705 33.2701 76.4725 33.5626V39.0594H73.3501V24.5006Z" fill="#2C1B5B"/>
<path d="M95.1873 37.9458C95.0715 38.0188 94.8973 38.1354 94.6666 38.306C94.3845 38.5009 94.0827 38.6655 93.7664 38.7969C93.3417 38.9751 92.9029 39.1175 92.4547 39.2224C91.886 39.3541 91.3038 39.4177 90.7203 39.4119C89.9213 39.4241 89.127 39.2872 88.3775 39.0082C87.7176 38.7603 87.1159 38.3776 86.6101 37.8842C86.1197 37.3944 85.7423 36.802 85.5046 36.149C85.2456 35.4322 85.1179 34.6741 85.128 33.9114C85.1265 33.2082 85.2476 32.5103 85.4858 31.8492C85.7119 31.208 86.0621 30.6182 86.5159 30.1139C86.9789 29.6086 87.5397 29.2038 88.1638 28.9246C88.8605 28.6171 89.615 28.4645 90.3756 28.4772C91.1999 28.4772 91.9218 28.6225 92.5414 28.9132C93.1488 29.194 93.6862 29.6082 94.1139 30.1253C94.5557 30.6723 94.8839 31.303 95.079 31.98C95.3025 32.7494 95.4119 33.5477 95.4039 34.3493V34.8733H88.161C88.1748 35.4255 88.4171 35.9092 88.8879 36.3243C89.3587 36.7394 90.0056 36.9466 90.8286 36.946C91.6371 36.946 92.2962 36.8259 92.806 36.5859C93.1929 36.4138 93.563 36.2057 93.9114 35.9642L95.1873 37.9458ZM92.4566 32.8604C92.4544 32.6331 92.4103 32.4082 92.3267 32.197C92.2372 31.9643 92.1042 31.751 91.935 31.5687C91.7501 31.3716 91.5292 31.2123 91.2843 31.0996C90.9913 30.9678 90.6729 30.9031 90.3521 30.91C90.0244 30.9047 89.6993 30.9693 89.3982 31.0996C89.1426 31.2104 88.9105 31.3696 88.7146 31.5687C88.5406 31.7486 88.4011 31.9594 88.3031 32.1904C88.2126 32.3998 88.1646 32.6254 88.1619 32.8538L92.4566 32.8604Z" fill="#2C1B5B"/>
<path d="M97.1815 28.8202H100.174L100.282 30.1082C100.586 29.7191 100.948 29.3805 101.356 29.1045C101.811 28.7842 102.401 28.624 103.123 28.624C103.359 28.6213 103.595 28.6359 103.828 28.6676C104.025 28.6976 104.217 28.7487 104.403 28.8202L103.904 31.5923C103.537 31.4836 103.156 31.4321 102.774 31.4397C102.036 31.4397 101.44 31.6608 100.985 32.1031C100.53 32.5454 100.302 33.1746 100.302 33.9909V39.0555H97.1787L97.1815 28.8202Z" fill="#2C1B5B"/>
<path d="M39.3423 0.852356H25.1173C24.277 0.852607 23.4712 1.18868 22.877 1.78668C22.2829 2.38469 21.949 3.1957 21.9487 4.04141V12.3301H14.8367C14.4205 12.33 14.0084 12.4124 13.6238 12.5726C13.2393 12.7328 12.8899 12.9677 12.5956 13.2638C12.3012 13.56 12.0677 13.9116 11.9085 14.2985C11.7492 14.6855 11.6672 15.1003 11.6672 15.5192V23.8116H4.5523C4.13612 23.8115 3.724 23.8939 3.33946 24.0541C2.95493 24.2143 2.60552 24.4492 2.31119 24.7454C2.01686 25.0415 1.78339 25.3931 1.62409 25.7801C1.4648 26.167 1.38281 26.5818 1.38281 27.0007V41.3216C1.38306 42.1674 1.7171 42.9786 2.31147 43.5766C2.90583 44.1747 3.71186 44.5106 4.5523 44.5106H18.7792C19.6197 44.5106 20.4257 44.1747 21.0201 43.5766C21.6144 42.9786 21.9485 42.1674 21.9487 41.3216V33.0291H29.0608C29.9011 33.0291 30.707 32.6931 31.3013 32.095C31.8955 31.497 32.2293 30.6858 32.2293 29.84V21.5476H39.3423C40.1826 21.5473 40.9883 21.2112 41.5825 20.6132C42.1767 20.0152 42.5106 19.2042 42.5108 18.3585V4.04141C42.5106 3.1957 42.1767 2.38469 41.5825 1.78668C40.9883 1.18868 40.1826 0.852607 39.3423 0.852356ZM20.3517 41.3197C20.3512 41.7392 20.1854 42.1414 19.8905 42.4379C19.5957 42.7345 19.196 42.9012 18.7792 42.9014H4.5523C4.13549 42.9012 3.7358 42.7345 3.44098 42.4379C3.14616 42.1414 2.9803 41.7392 2.9798 41.3197V27.0045C2.9803 26.585 3.14616 26.1828 3.44098 25.8862C3.7358 25.5897 4.13549 25.423 4.5523 25.4227H11.6643V29.84C11.6646 30.6859 11.9986 31.4971 12.593 32.0951C13.1874 32.6931 13.9934 33.0291 14.8338 33.0291H20.3489L20.3517 41.3197ZM20.3517 31.4199H14.8367C14.4198 31.4196 14.0202 31.2529 13.7253 30.9564C13.4305 30.6598 13.2647 30.2576 13.2642 29.8381V25.4227H18.7792C19.196 25.423 19.5957 25.5897 19.8905 25.8862C20.1854 26.1828 20.3512 26.585 20.3517 27.0045V31.4199ZM30.6351 29.84C30.6346 30.2594 30.4689 30.6614 30.1743 30.9579C29.8797 31.2545 29.4802 31.4213 29.0636 31.4218H21.9487V27.0045C21.9487 26.5856 21.8667 26.1708 21.7074 25.7839C21.5481 25.3969 21.3147 25.0453 21.0203 24.7491C20.726 24.453 20.3766 24.2181 19.9921 24.0579C19.6075 23.8977 19.1954 23.8153 18.7792 23.8154H13.2642V15.5229C13.2647 15.1034 13.4305 14.7013 13.7253 14.4047C14.0202 14.1082 14.4198 13.9415 14.8367 13.9412H21.9487V18.3585C21.949 19.2042 22.2829 20.0152 22.877 20.6132C23.4712 21.2112 24.277 21.5473 25.1173 21.5476H30.6351V29.84ZM30.6351 19.9402H25.1173C24.7006 19.9397 24.3012 19.7729 24.0065 19.4764C23.7119 19.1799 23.5462 18.7778 23.5457 18.3585V13.9412H29.0608C29.4779 13.941 29.8781 14.1074 30.1733 14.404C30.4685 14.7006 30.6346 15.1031 30.6351 15.5229V19.9402ZM40.9167 18.3585C40.9162 18.7778 40.7504 19.1799 40.4558 19.4764C40.1612 19.7729 39.7618 19.9397 39.3451 19.9402H32.2293V15.5229C32.2299 15.1038 32.1484 14.6886 31.9894 14.3012C31.8305 13.9138 31.5972 13.5618 31.3029 13.2652C31.0086 12.9687 30.659 12.7334 30.2743 12.573C29.8896 12.4125 29.4772 12.33 29.0608 12.3301H23.5457V4.03762C23.5462 3.61827 23.7119 3.21624 24.0065 2.91972C24.3012 2.62319 24.7006 2.45639 25.1173 2.45589H39.3423C39.7589 2.45639 40.1584 2.62319 40.453 2.91972C40.7476 3.21624 40.9133 3.61827 40.9138 4.03762L40.9167 18.3585Z" fill="url(#paint0_linear_169_3888)"/>
<path d="M42.524 52.2619C42.7298 52.4836 42.95 52.6913 43.1831 52.8836C43.4473 53.1025 43.731 53.2964 44.0306 53.4627C44.3536 53.6418 44.6953 53.7845 45.0494 53.8882C45.4335 53.9994 45.8315 54.0547 46.2311 54.0521C46.4809 54.0514 46.7292 54.0144 46.9684 53.9422C47.2077 53.8729 47.4346 53.7661 47.6407 53.6257C47.8368 53.4948 48.003 53.3236 48.1285 53.1234C48.2535 52.9251 48.3189 52.6948 48.3168 52.46C48.3168 51.9229 48.0566 51.5047 47.5362 51.2052C47.0158 50.9057 46.1919 50.611 45.0645 50.321C44.533 50.197 44.0192 50.006 43.5353 49.7524C43.086 49.5205 42.676 49.2186 42.3206 48.8577C41.9832 48.5123 41.7147 48.105 41.5296 47.6579C41.3361 47.1797 41.2401 46.6673 41.2472 46.151C41.2436 45.5606 41.3542 44.9751 41.573 44.4272C41.7933 43.8834 42.1303 43.3954 42.5598 42.998C43.0368 42.5611 43.5976 42.227 44.2076 42.0162C44.8649 41.7755 45.642 41.6554 46.5391 41.656C47.1965 41.6462 47.8524 41.723 48.4901 41.8844C48.9893 42.0128 49.473 42.1959 49.9326 42.4303C50.2823 42.6093 50.6097 42.8291 50.9082 43.0852C51.1593 43.3108 51.3507 43.4889 51.4826 43.6197L49.5993 45.7151C49.4399 45.5843 49.2556 45.4425 49.0466 45.2896C48.8235 45.1285 48.5876 44.9862 48.3413 44.8641C48.0668 44.7274 47.7798 44.6176 47.4844 44.5361C47.1633 44.4476 46.8316 44.4036 46.4986 44.4054C46.2664 44.4056 46.0357 44.4427 45.8149 44.5153C45.5997 44.5838 45.3952 44.6827 45.2076 44.8091C45.0359 44.9244 44.8886 45.0729 44.7745 45.246C44.6689 45.4041 44.6122 45.59 44.6116 45.7805C44.6116 46.2752 44.8718 46.6755 45.3922 46.9812C45.9126 47.287 46.6282 47.5417 47.5391 47.7451C48.0776 47.8771 48.6038 48.0559 49.1116 48.2796C49.6142 48.4988 50.0789 48.7973 50.4882 49.1638C50.9013 49.5392 51.2333 49.9959 51.4637 50.5058C51.7098 51.0371 51.8328 51.681 51.8328 52.4372C51.8384 53.068 51.6893 53.6904 51.3987 54.2493C51.1053 54.8057 50.7011 55.2954 50.2114 55.6879C49.6879 56.1083 49.0929 56.4295 48.4552 56.6356C47.7515 56.8661 47.0154 56.9803 46.2754 56.9739C45.6106 56.9805 44.9472 56.9112 44.298 56.7673C43.7469 56.6424 43.2103 56.4595 42.6972 56.2214C42.2418 56.0104 41.8095 55.7521 41.4072 55.451C41.051 55.1847 40.7206 54.8852 40.4204 54.5563L42.524 52.2619Z" fill="#2C1B5B"/>
<path d="M53.9082 58.2202C54.0883 58.3549 54.281 58.4717 54.4836 58.5689C54.6964 58.6721 54.93 58.7246 55.1662 58.7225C55.4751 58.7312 55.775 58.6175 56.0014 58.4059C56.2256 58.1949 56.4387 57.8348 56.6408 57.3255L56.9449 56.4963L52.3037 46.369H55.8602L58.4026 52.8296L60.7011 46.369H64.0184L59.8508 56.5399C59.6191 57.1085 59.3913 57.6724 59.1672 58.2315C58.9566 58.7661 58.6798 59.2718 58.3433 59.7365C58.0237 60.1757 57.6176 60.5438 57.1502 60.8178C56.6807 61.0939 56.0918 61.232 55.3837 61.232C54.8765 61.2382 54.3713 61.1646 53.8866 61.014C53.4436 60.8705 53.0264 60.6561 52.6512 60.3791L53.9082 58.2202Z" fill="#2C1B5B"/>
<path d="M65.9872 53.4399C66.3717 53.777 66.817 54.0366 67.2988 54.2047C67.8006 54.4006 68.3332 54.504 68.8713 54.5099C69.2616 54.5216 69.6507 54.4625 70.0201 54.3355C70.1602 54.2901 70.2813 54.1989 70.3638 54.0762C70.4464 53.9536 70.4859 53.8067 70.4759 53.6588C70.478 53.5324 70.4454 53.4078 70.3817 53.2987C70.291 53.167 70.1676 53.0615 70.0239 52.9926C69.7906 52.8739 69.5477 52.7753 69.2979 52.6979C68.9872 52.5961 68.5932 52.4799 68.1162 52.3491C67.7181 52.2456 67.329 52.1102 66.9523 51.9444C66.5848 51.787 66.2414 51.5777 65.9325 51.3227C65.6364 51.0758 65.393 50.7712 65.2169 50.4271C65.0296 50.0319 64.9369 49.598 64.9464 49.1601C64.9559 48.7223 65.0672 48.2929 65.2715 47.9062C65.4972 47.511 65.8041 47.1688 66.1717 46.9026C66.5845 46.6043 67.0469 46.3825 67.5371 46.2477C68.0917 46.0916 68.6655 46.0147 69.2414 46.0193C70.0105 46.0063 70.7774 46.1056 71.5182 46.3141C72.159 46.5064 72.7663 46.7973 73.3186 47.1765L72.0003 49.2501C71.6406 49.0171 71.2594 48.8197 70.8619 48.6606C70.4028 48.4802 69.9131 48.3914 69.4203 48.399C68.9426 48.399 68.5954 48.4679 68.3789 48.6056C68.28 48.6606 68.1977 48.7414 68.1405 48.8394C68.0833 48.9375 68.0535 49.0492 68.054 49.1629C68.054 49.4974 68.2772 49.7448 68.7263 49.904C69.1755 50.0632 69.7809 50.2471 70.5474 50.4508C71.5889 50.7415 72.3443 51.1414 72.8139 51.6506C73.2835 52.1599 73.5182 52.8365 73.5182 53.6806C73.5335 54.1942 73.4028 54.7015 73.1416 55.143C72.8834 55.5552 72.5349 55.9024 72.1227 56.158C71.6741 56.4362 71.1833 56.6388 70.6698 56.7579C70.1264 56.8888 69.5695 56.9546 69.0107 56.954C68.1327 56.9624 67.2584 56.8391 66.4165 56.5882C65.6067 56.3412 64.9492 55.9621 64.4438 55.451L65.9872 53.4399Z" fill="#2C1B5B"/>
<path d="M75.9406 48.835H74.3398V46.371H75.9406V43.272H79.063V46.371H81.6864V48.835H79.063V52.8732C79.063 53.368 79.1606 53.7499 79.3558 54.019C79.5511 54.2882 79.8584 54.4228 80.2777 54.4228C80.5609 54.4296 80.8422 54.3736 81.1016 54.2588C81.3294 54.1524 81.5472 54.0256 81.7523 53.8797L83.0093 55.8007C82.0263 56.5867 80.9566 56.9794 79.8003 56.9787C79.0771 56.9787 78.4698 56.8732 77.9783 56.6622C77.5161 56.4735 77.1068 56.1738 76.7862 55.7894C76.4717 55.397 76.2493 54.9383 76.1355 54.4474C76.0001 53.8754 75.9346 53.2888 75.9406 52.7008V48.835Z" fill="#2C1B5B"/>
<path d="M93.4193 55.4918C93.3034 55.5647 93.1292 55.6813 92.8985 55.8519C92.6168 56.0476 92.315 56.2121 91.9984 56.3428C91.5737 56.5214 91.1349 56.6641 90.6867 56.7693C90.1176 56.901 89.5351 56.9646 88.9513 56.9588C88.1526 56.9709 87.3586 56.834 86.6095 56.5551C85.9494 56.3075 85.3476 55.9248 84.8421 55.4311C84.3515 54.9413 83.9741 54.3489 83.7366 53.6958C83.4774 52.9794 83.3498 52.2216 83.3599 51.4592C83.3585 50.7558 83.4796 50.0575 83.7178 49.3961C83.9439 48.7551 84.294 48.1657 84.7479 47.6618C85.2106 47.1559 85.7714 46.7508 86.3957 46.4714C87.0925 46.164 87.8469 46.0114 88.6076 46.0241C89.4318 46.0241 90.1537 46.1697 90.7733 46.461C91.3807 46.7415 91.9181 47.1553 92.3458 47.6722C92.7879 48.2192 93.1158 48.8503 93.31 49.5278C93.5343 50.297 93.6441 51.0955 93.6358 51.8971V52.4183H86.3929C86.4067 52.9718 86.649 53.4554 87.1198 53.8693C87.5906 54.2831 88.2375 54.4907 89.0605 54.4919C89.869 54.4919 90.5282 54.3719 91.0379 54.1318C91.4255 53.96 91.7959 53.7515 92.1443 53.5091L93.4193 55.4918ZM90.6886 50.4063C90.6864 50.179 90.6423 49.9541 90.5586 49.7429C90.4688 49.5126 90.3362 49.3016 90.1678 49.1212C89.9837 48.9222 89.7626 48.7612 89.5172 48.6474C89.2242 48.5156 88.9058 48.4509 88.585 48.4578C88.2573 48.4525 87.9322 48.5171 87.6311 48.6474C87.3749 48.7593 87.1428 48.9202 86.9475 49.1212C86.7727 49.3006 86.6331 49.5115 86.536 49.7429C86.4453 49.9523 86.3973 50.1779 86.3948 50.4063H90.6886Z" fill="#2C1B5B"/>
<path d="M95.4185 46.3691H98.4109L98.5192 47.5064C98.8545 47.1003 99.2676 46.7664 99.7339 46.5245C100.271 46.2523 100.867 46.1175 101.468 46.1322C101.834 46.1269 102.199 46.1708 102.553 46.263C103.099 46.4029 103.601 46.6763 104.016 47.0591C104.18 47.2082 104.329 47.3725 104.462 47.55C104.89 47.0934 105.411 46.736 105.99 46.5027C106.585 46.2564 107.222 46.1305 107.866 46.1322C109.167 46.1322 110.161 46.5031 110.848 47.2448C111.535 47.9865 111.878 48.9974 111.878 50.2775V56.6073H108.755V50.7779C108.755 50.1663 108.621 49.6924 108.353 49.3563C108.086 49.0202 107.685 48.8528 107.15 48.854C106.542 48.854 106.058 49.065 105.697 49.4871C105.336 49.9091 105.155 50.4462 105.155 51.0982V56.5949H102.142V50.7779C102.142 50.1663 102.008 49.6924 101.74 49.3563C101.473 49.0202 101.072 48.8528 100.537 48.854C100.264 48.8445 99.9925 48.8967 99.7422 49.0067C99.4919 49.1168 99.2693 49.2819 99.0908 49.4899C98.7217 49.9126 98.5371 50.4496 98.5371 51.101V56.5978H95.4185V46.3691Z" fill="#2C1B5B"/>
<path d="M115.169 53.4399C115.554 53.7768 115.999 54.0364 116.481 54.2047C116.982 54.4006 117.515 54.504 118.053 54.5099C118.444 54.5215 118.833 54.4624 119.203 54.3355C119.343 54.2899 119.464 54.1986 119.546 54.076C119.629 53.9533 119.668 53.8065 119.658 53.6588C119.66 53.5323 119.627 53.4077 119.564 53.2987C119.472 53.1674 119.349 53.062 119.206 52.9926C118.972 52.874 118.729 52.7754 118.479 52.6978C118.168 52.5961 117.774 52.4799 117.297 52.3491C116.899 52.2455 116.511 52.1102 116.134 51.9444C115.767 51.7872 115.424 51.5779 115.115 51.3227C114.819 51.0761 114.576 50.7714 114.4 50.4271C114.213 50.0319 114.12 49.598 114.129 49.1602C114.139 48.7225 114.25 48.293 114.453 47.9062C114.679 47.511 114.986 47.1688 115.354 46.9026C115.767 46.6041 116.229 46.3823 116.72 46.2477C117.274 46.0914 117.846 46.0142 118.421 46.0183C119.191 46.0053 119.958 46.1046 120.699 46.3131C121.34 46.5054 121.947 46.7963 122.499 47.1755L121.18 49.2491C120.821 49.0161 120.439 48.8187 120.042 48.6596C119.583 48.4792 119.093 48.3903 118.6 48.3981C118.123 48.3981 117.775 48.4669 117.559 48.6047C117.46 48.6596 117.378 48.7404 117.321 48.8384C117.263 48.9365 117.234 49.0482 117.234 49.1619C117.234 49.4961 117.458 49.7432 117.906 49.903C118.355 50.0629 118.962 50.2451 119.727 50.4499C120.769 50.7405 121.524 51.1404 121.994 51.6497C122.463 52.1589 122.698 52.8356 122.698 53.6797C122.714 54.1932 122.583 54.7005 122.322 55.142C122.064 55.5546 121.715 55.9019 121.303 56.157C120.854 56.4353 120.363 56.638 119.85 56.7569C119.306 56.8878 118.75 56.9537 118.191 56.9531C117.317 56.9586 116.448 56.8337 115.611 56.5825C114.801 56.3355 114.142 55.9564 113.633 55.4452L115.169 53.4399Z" fill="#2C1B5B"/>
</g>
<defs>
<linearGradient id="paint0_linear_169_3888" x1="1.75099" y1="43.0094" x2="42.407" y2="2.61579" gradientUnits="userSpaceOnUse">
<stop stop-color="#34F0B8"/>
<stop offset="1" stop-color="#49D9E6"/>
</linearGradient>
<clipPath id="clip0_169_3888">
<rect width="123" height="62" fill="white"/>
</clipPath>
</defs>
</svg>
