<svg width="120" height="60" viewBox="0 0 120 60" fill="none" xmlns="http://www.w3.org/2000/svg">
<g clip-path="url(#clip0_169_3888)">
<path d="M38.2583 23.5006H41.5351V35.1338H48.4532V38.0556H38.2583V23.5006Z" fill="#2C1B5B"/>
<path d="M50.0772 27.8203H53.1996V33.7151C53.1996 34.2976 53.3405 34.756 53.6224 35.0902C53.9042 35.4244 54.3201 35.5919 54.87 35.5925C55.1634 35.5974 55.4538 35.5325 55.7175 35.403C55.9578 35.2836 56.1717 35.1166 56.3465 34.912C56.5237 34.7011 56.6563 34.456 56.7363 34.1918C56.823 33.9159 56.8668 33.6282 56.8662 33.3388V27.8203H59.9679V38.0556H56.9726L56.8841 36.9676C56.5216 37.3828 56.0741 37.7142 55.5724 37.939C55.0397 38.1902 54.4583 38.3197 53.87 38.3181C52.6999 38.3181 51.7746 37.9687 51.0941 37.27C50.4136 36.5712 50.0747 35.5379 50.0772 34.17V27.8203Z" fill="#2C1B5B"/>
<path d="M63.0451 30.2891H61.4443V27.8203H63.0451V24.7213H66.1675V27.8203H68.7908V30.2844H66.1675V34.3216C66.1675 34.8163 66.2651 35.1983 66.4603 35.4674C66.6553 35.7375 66.9622 35.8712 67.3822 35.8712C67.6654 35.8783 67.9467 35.8226 68.2061 35.7081C68.4335 35.601 68.6512 35.4742 68.8568 35.3291L70.1138 37.2491C69.1308 38.0357 68.0611 38.4309 66.9048 38.4347C66.1816 38.4347 65.5743 38.3292 65.0828 38.1182C64.6208 37.9291 64.2116 37.6295 63.8907 37.2453C63.5762 36.8526 63.3538 36.3936 63.24 35.9024C63.1045 35.3307 63.039 34.7445 63.0451 34.1567V30.2891Z" fill="#2C1B5B"/>
<path d="M71.3501 23.5006H74.4508V28.8078C74.8068 28.3981 75.2604 28.0863 75.7691 27.9018C76.3016 27.6942 76.8675 27.5869 77.4386 27.5853C78.61 27.5853 79.5463 27.9327 80.2475 28.6277C80.9486 29.3227 81.2992 30.356 81.2992 31.7277V38.0556H78.2023V32.2091C78.2023 31.6133 78.0507 31.1477 77.7474 30.8122C77.4442 30.4767 77.0394 30.3096 76.5328 30.3109C76.2261 30.3063 75.9224 30.3711 75.6439 30.5004C75.3945 30.6152 75.1726 30.7826 74.9932 30.9913C74.8174 31.1991 74.6845 31.4401 74.6024 31.7002C74.5143 31.979 74.4705 32.2701 74.4725 32.5626V38.0594H71.3501V23.5006Z" fill="#2C1B5B"/>
<path d="M93.1873 36.9458C93.0715 37.0188 92.8973 37.1354 92.6666 37.306C92.3845 37.5009 92.0827 37.6655 91.7664 37.7969C91.3417 37.9751 90.9029 38.1175 90.4547 38.2224C89.886 38.3541 89.3038 38.4177 88.7203 38.4119C87.9213 38.4241 87.127 38.2872 86.3775 38.0082C85.7176 37.7603 85.1159 37.3776 84.6101 36.8842C84.1197 36.3944 83.7423 35.802 83.5046 35.149C83.2456 34.4322 83.1179 33.6741 83.128 32.9114C83.1265 32.2082 83.2476 31.5103 83.4858 30.8492C83.7119 30.208 84.0621 29.6182 84.5159 29.1139C84.9789 28.6086 85.5397 28.2038 86.1638 27.9246C86.8605 27.6171 87.615 27.4645 88.3756 27.4772C89.1999 27.4772 89.9218 27.6225 90.5414 27.9132C91.1488 28.194 91.6862 28.6082 92.1139 29.1253C92.5557 29.6723 92.8839 30.303 93.079 30.98C93.3025 31.7494 93.4119 32.5477 93.4039 33.3493V33.8733H86.161C86.1748 34.4255 86.4171 34.9092 86.8879 35.3243C87.3587 35.7394 88.0056 35.9466 88.8286 35.946C89.6371 35.946 90.2962 35.8259 90.806 35.5859C91.1929 35.4138 91.563 35.2057 91.9114 34.9642L93.1873 36.9458ZM90.4566 31.8604C90.4544 31.6331 90.4103 31.4082 90.3267 31.197C90.2372 30.9643 90.1042 30.751 89.935 30.5687C89.7501 30.3716 89.5292 30.2123 89.2843 30.0996C88.9913 29.9678 88.6729 29.9031 88.3521 29.91C88.0244 29.9047 87.6993 29.9693 87.3982 30.0996C87.1426 30.2104 86.9105 30.3696 86.7146 30.5687C86.5406 30.7486 86.4011 30.9594 86.3031 31.1904C86.2126 31.3998 86.1646 31.6254 86.1619 31.8538L90.4566 31.8604Z" fill="#2C1B5B"/>
<path d="M95.1815 27.8202H98.174L98.2823 29.1082C98.5857 28.7191 98.948 28.3805 99.3557 28.1045C99.8115 27.7842 100.401 27.624 101.123 27.624C101.359 27.6213 101.595 27.6359 101.828 27.6676C102.025 27.6976 102.217 27.7487 102.403 27.8202L101.904 30.5923C101.537 30.4836 101.156 30.4321 100.774 30.4397C100.036 30.4397 99.4399 30.6608 98.9847 31.1031C98.5296 31.5454 98.3021 32.1746 98.3021 32.9909V38.0555H95.1787L95.1815 27.8202Z" fill="#2C1B5B"/>
<path d="M37.3423 -0.147644H23.1173C22.277 -0.147393 21.4712 0.188676 20.877 0.786685C20.2829 1.38469 19.949 2.1957 19.9487 3.04141V11.3301H12.8367C12.4205 11.33 12.0084 11.4124 11.6238 11.5726C11.2393 11.7328 10.8899 11.9677 10.5956 12.2638C10.3012 12.56 10.0677 12.9116 9.90845 13.2985C9.74916 13.6855 9.66717 14.1003 9.66717 14.5192V22.8116H2.5523C2.13612 22.8115 1.724 22.8939 1.33946 23.0541C0.954927 23.2143 0.605518 23.4492 0.311191 23.7454C0.0168646 24.0415 -0.216613 24.3931 -0.375906 24.7801C-0.5352 25.167 -0.617188 25.5818 -0.617187 26.0007V40.3216C-0.616938 41.1674 -0.2829 41.9786 0.311467 42.5766C0.905834 43.1747 1.71186 43.5106 2.5523 43.5106H16.7792C17.6197 43.5106 18.4257 43.1747 19.0201 42.5766C19.6144 41.9786 19.9485 41.1674 19.9487 40.3216V32.0291H27.0608C27.9011 32.0291 28.707 31.6931 29.3013 31.095C29.8955 30.497 30.2293 29.6858 30.2293 28.84V20.5476H37.3423C38.1826 20.5473 38.9883 20.2112 39.5825 19.6132C40.1767 19.0152 40.5106 18.2042 40.5108 17.3585V3.04141C40.5106 2.1957 40.1767 1.38469 39.5825 0.786685C38.9883 0.188676 38.1826 -0.147393 37.3423 -0.147644ZM18.3517 40.3197C18.3512 40.7392 18.1854 41.1414 17.8905 41.4379C17.5957 41.7345 17.196 41.9012 16.7792 41.9014H2.5523C2.13549 41.9012 1.7358 41.7345 1.44098 41.4379C1.14616 41.1414 0.980297 40.7392 0.979798 40.3197V26.0045C0.980297 25.585 1.14616 25.1828 1.44098 24.8862C1.7358 24.5897 2.13549 24.423 2.5523 24.4227H9.66435V28.84C9.6646 29.6859 9.99864 30.4971 10.593 31.0951C11.1874 31.6931 11.9934 32.0291 12.8338 32.0291H18.3489L18.3517 40.3197ZM18.3517 30.4199H12.8367C12.4198 30.4196 12.0202 30.2529 11.7253 29.9564C11.4305 29.6598 11.2647 29.2576 11.2642 28.8381V24.4227H16.7792C17.196 24.423 17.5957 24.5897 17.8905 24.8862C18.1854 25.1828 18.3512 25.585 18.3517 26.0045V30.4199ZM28.6351 28.84C28.6346 29.2594 28.4689 29.6614 28.1743 29.9579C27.8797 30.2545 27.4802 30.4213 27.0636 30.4218H19.9487V26.0045C19.9487 25.5856 19.8667 25.1708 19.7074 24.7839C19.5481 24.3969 19.3147 24.0453 19.0203 23.7491C18.726 23.453 18.3766 23.2181 17.9921 23.0579C17.6075 22.8977 17.1954 22.8153 16.7792 22.8154H11.2642V14.5229C11.2647 14.1034 11.4305 13.7013 11.7253 13.4047C12.0202 13.1082 12.4198 12.9415 12.8367 12.9412H19.9487V17.3585C19.949 18.2042 20.2829 19.0152 20.877 19.6132C21.4712 20.2112 22.277 20.5473 23.1173 20.5476H28.6351V28.84ZM28.6351 18.9402H23.1173C22.7006 18.9397 22.3012 18.7729 22.0065 18.4764C21.7119 18.1799 21.5462 17.7778 21.5457 17.3585V12.9412H27.0608C27.4779 12.941 27.8781 13.1074 28.1733 13.404C28.4685 13.7006 28.6346 14.1031 28.6351 14.5229V18.9402ZM38.9167 17.3585C38.9162 17.7778 38.7504 18.1799 38.4558 18.4764C38.1612 18.7729 37.7618 18.9397 37.3451 18.9402H30.2293V14.5229C30.2299 14.1038 30.1484 13.6886 29.9894 13.3012C29.8305 12.9138 29.5972 12.5618 29.3029 12.2652C29.0086 11.9687 28.659 11.7334 28.2743 11.573C27.8896 11.4125 27.4772 11.33 27.0608 11.3301H21.5457V3.03762C21.5462 2.61827 21.7119 2.21624 22.0065 1.91972C22.3012 1.62319 22.7006 1.45639 23.1173 1.45589H37.3423C37.7589 1.45639 38.1584 1.62319 38.453 1.91972C38.7476 2.21624 38.9133 2.61827 38.9138 3.03762L38.9167 17.3585Z" fill="url(#paint0_linear_169_3888)"/>
<path d="M40.524 51.2619C40.7298 51.4836 40.95 51.6913 41.1831 51.8836C41.4473 52.1025 41.731 52.2964 42.0306 52.4627C42.3536 52.6418 42.6953 52.7845 43.0494 52.8882C43.4335 52.9994 43.8315 53.0547 44.2311 53.0521C44.4809 53.0514 44.7292 53.0144 44.9684 52.9422C45.2077 52.8729 45.4346 52.7661 45.6407 52.6257C45.8368 52.4948 46.003 52.3236 46.1285 52.1234C46.2535 51.9251 46.3189 51.6948 46.3168 51.46C46.3168 50.9229 46.0566 50.5047 45.5362 50.2052C45.0158 49.9057 44.1919 49.611 43.0645 49.321C42.533 49.197 42.0192 49.006 41.5353 48.7524C41.086 48.5205 40.676 48.2186 40.3206 47.8577C39.9832 47.5123 39.7147 47.105 39.5296 46.6579C39.3361 46.1797 39.2401 45.6673 39.2472 45.151C39.2436 44.5606 39.3542 43.9751 39.573 43.4272C39.7933 42.8834 40.1303 42.3954 40.5598 41.998C41.0368 41.5611 41.5976 41.227 42.2076 41.0162C42.8649 40.7755 43.642 40.6554 44.5391 40.656C45.1965 40.6462 45.8524 40.723 46.4901 40.8844C46.9893 41.0128 47.473 41.1959 47.9326 41.4303C48.2823 41.6093 48.6097 41.8291 48.9082 42.0852C49.1593 42.3108 49.3507 42.4889 49.4826 42.6197L47.5993 44.7151C47.4399 44.5843 47.2556 44.4425 47.0466 44.2896C46.8235 44.1285 46.5876 43.9862 46.3413 43.8641C46.0668 43.7274 45.7798 43.6176 45.4844 43.5361C45.1633 43.4476 44.8316 43.4036 44.4986 43.4054C44.2664 43.4056 44.0357 43.4427 43.8149 43.5153C43.5997 43.5838 43.3952 43.6827 43.2076 43.8091C43.0359 43.9244 42.8886 44.0729 42.7745 44.246C42.6689 44.4041 42.6122 44.59 42.6116 44.7805C42.6116 45.2752 42.8718 45.6755 43.3922 45.9812C43.9126 46.287 44.6282 46.5417 45.5391 46.7451C46.0776 46.8771 46.6038 47.0559 47.1116 47.2796C47.6142 47.4988 48.0789 47.7973 48.4882 48.1638C48.9013 48.5392 49.2333 48.9959 49.4637 49.5058C49.7098 50.0371 49.8328 50.681 49.8328 51.4372C49.8384 52.068 49.6893 52.6904 49.3987 53.2493C49.1053 53.8057 48.7011 54.2954 48.2114 54.6879C47.6879 55.1083 47.0929 55.4295 46.4552 55.6356C45.7515 55.8661 45.0154 55.9803 44.2754 55.9739C43.6106 55.9805 42.9472 55.9112 42.298 55.7673C41.7469 55.6424 41.2103 55.4595 40.6972 55.2214C40.2418 55.0104 39.8095 54.7521 39.4072 54.451C39.051 54.1847 38.7206 53.8852 38.4204 53.5563L40.524 51.2619Z" fill="#2C1B5B"/>
<path d="M51.9082 57.2202C52.0883 57.3549 52.281 57.4717 52.4836 57.5689C52.6964 57.6721 52.93 57.7246 53.1662 57.7225C53.4751 57.7312 53.775 57.6175 54.0014 57.4059C54.2256 57.1949 54.4387 56.8348 54.6408 56.3255L54.9449 55.4963L50.3037 45.369H53.8602L56.4026 51.8296L58.7011 45.369H62.0184L57.8508 55.5399C57.6191 56.1085 57.3913 56.6724 57.1672 57.2315C56.9566 57.7661 56.6798 58.2718 56.3433 58.7365C56.0237 59.1757 55.6176 59.5438 55.1502 59.8178C54.6807 60.0939 54.0918 60.232 53.3837 60.232C52.8765 60.2382 52.3713 60.1646 51.8866 60.014C51.4436 59.8705 51.0264 59.6561 50.6512 59.3791L51.9082 57.2202Z" fill="#2C1B5B"/>
<path d="M63.9872 52.4399C64.3717 52.777 64.817 53.0366 65.2988 53.2047C65.8006 53.4006 66.3332 53.504 66.8713 53.5099C67.2616 53.5216 67.6507 53.4625 68.0201 53.3355C68.1602 53.2901 68.2813 53.1989 68.3638 53.0762C68.4464 52.9536 68.4859 52.8067 68.4759 52.6588C68.478 52.5324 68.4454 52.4078 68.3817 52.2987C68.291 52.167 68.1676 52.0615 68.0239 51.9926C67.7906 51.8739 67.5477 51.7753 67.2979 51.6979C66.9872 51.5961 66.5932 51.4799 66.1162 51.3491C65.7181 51.2456 65.329 51.1102 64.9523 50.9444C64.5848 50.787 64.2414 50.5777 63.9325 50.3227C63.6364 50.0758 63.393 49.7712 63.2169 49.4271C63.0296 49.0319 62.9369 48.598 62.9464 48.1601C62.9559 47.7223 63.0672 47.2929 63.2715 46.9062C63.4972 46.511 63.8041 46.1688 64.1717 45.9026C64.5845 45.6043 65.0469 45.3825 65.5371 45.2477C66.0917 45.0916 66.6655 45.0147 67.2414 45.0193C68.0105 45.0063 68.7774 45.1056 69.5182 45.3141C70.159 45.5064 70.7663 45.7973 71.3186 46.1765L70.0003 48.2501C69.6406 48.0171 69.2594 47.8197 68.8619 47.6606C68.4028 47.4802 67.9131 47.3914 67.4203 47.399C66.9426 47.399 66.5954 47.4679 66.3789 47.6056C66.28 47.6606 66.1977 47.7414 66.1405 47.8394C66.0833 47.9375 66.0535 48.0492 66.054 48.1629C66.054 48.4974 66.2772 48.7448 66.7263 48.904C67.1755 49.0632 67.7809 49.2471 68.5474 49.4508C69.5889 49.7415 70.3443 50.1414 70.8139 50.6506C71.2835 51.1599 71.5182 51.8365 71.5182 52.6806C71.5335 53.1942 71.4028 53.7015 71.1416 54.143C70.8834 54.5552 70.5349 54.9024 70.1227 55.158C69.6741 55.4362 69.1833 55.6388 68.6698 55.7579C68.1264 55.8888 67.5695 55.9546 67.0107 55.954C66.1327 55.9624 65.2584 55.8391 64.4165 55.5882C63.6067 55.3412 62.9492 54.9621 62.4438 54.451L63.9872 52.4399Z" fill="#2C1B5B"/>
<path d="M73.9406 47.835H72.3398V45.371H73.9406V42.272H77.063V45.371H79.6864V47.835H77.063V51.8732C77.063 52.368 77.1606 52.7499 77.3558 53.019C77.5511 53.2882 77.8584 53.4228 78.2777 53.4228C78.5609 53.4296 78.8422 53.3736 79.1016 53.2588C79.3294 53.1524 79.5472 53.0256 79.7523 52.8797L81.0093 54.8007C80.0263 55.5867 78.9566 55.9794 77.8003 55.9787C77.0771 55.9787 76.4698 55.8732 75.9783 55.6622C75.5161 55.4735 75.1068 55.1738 74.7862 54.7894C74.4717 54.397 74.2493 53.9383 74.1355 53.4474C74.0001 52.8754 73.9346 52.2888 73.9406 51.7008V47.835Z" fill="#2C1B5B"/>
<path d="M91.4193 54.4918C91.3034 54.5647 91.1292 54.6813 90.8985 54.8519C90.6168 55.0476 90.315 55.2121 89.9984 55.3428C89.5737 55.5214 89.1349 55.6641 88.6867 55.7693C88.1176 55.901 87.5351 55.9646 86.9513 55.9588C86.1526 55.9709 85.3586 55.834 84.6095 55.5551C83.9494 55.3075 83.3476 54.9248 82.8421 54.4311C82.3515 53.9413 81.9741 53.3489 81.7366 52.6958C81.4774 51.9794 81.3498 51.2216 81.3599 50.4592C81.3585 49.7558 81.4796 49.0575 81.7178 48.3961C81.9439 47.7551 82.294 47.1657 82.7479 46.6618C83.2106 46.1559 83.7714 45.7508 84.3957 45.4714C85.0925 45.164 85.8469 45.0114 86.6076 45.0241C87.4318 45.0241 88.1537 45.1697 88.7733 45.461C89.3807 45.7415 89.9181 46.1553 90.3458 46.6722C90.7879 47.2192 91.1158 47.8503 91.31 48.5278C91.5343 49.297 91.6441 50.0955 91.6358 50.8971V51.4183H84.3929C84.4067 51.9718 84.649 52.4554 85.1198 52.8693C85.5906 53.2831 86.2375 53.4907 87.0605 53.4919C87.869 53.4919 88.5282 53.3719 89.0379 53.1318C89.4255 52.96 89.7959 52.7515 90.1443 52.5091L91.4193 54.4918ZM88.6886 49.4063C88.6864 49.179 88.6423 48.9541 88.5586 48.7429C88.4688 48.5126 88.3362 48.3016 88.1678 48.1212C87.9837 47.9222 87.7626 47.7612 87.5172 47.6474C87.2242 47.5156 86.9058 47.4509 86.585 47.4578C86.2573 47.4525 85.9322 47.5171 85.6311 47.6474C85.3749 47.7593 85.1428 47.9202 84.9475 48.1212C84.7727 48.3006 84.6331 48.5115 84.536 48.7429C84.4453 48.9523 84.3973 49.1779 84.3948 49.4063H88.6886Z" fill="#2C1B5B"/>
<path d="M93.4185 45.3691H96.4109L96.5192 46.5064C96.8545 46.1003 97.2676 45.7664 97.7339 45.5245C98.2712 45.2523 98.867 45.1175 99.4684 45.1322C99.8341 45.1269 100.199 45.1708 100.553 45.263C101.099 45.4029 101.601 45.6763 102.016 46.0591C102.18 46.2082 102.329 46.3725 102.462 46.55C102.89 46.0934 103.411 45.736 103.99 45.5027C104.585 45.2564 105.222 45.1305 105.866 45.1322C107.167 45.1322 108.161 45.5031 108.848 46.2448C109.535 46.9865 109.878 47.9974 109.878 49.2775V55.6073H106.755V49.7779C106.755 49.1663 106.621 48.6924 106.353 48.3563C106.086 48.0202 105.685 47.8528 105.15 47.854C104.542 47.854 104.058 48.065 103.697 48.4871C103.336 48.9091 103.155 49.4462 103.155 50.0982V55.5949H100.142V49.7779C100.142 49.1663 100.008 48.6924 99.7405 48.3563C99.4731 48.0202 99.0719 47.8528 98.5371 47.854C98.2641 47.8445 97.9925 47.8967 97.7422 48.0067C97.4919 48.1168 97.2693 48.2819 97.0908 48.4899C96.7217 48.9126 96.5371 49.4496 96.5371 50.101V55.5978H93.4185V45.3691Z" fill="#2C1B5B"/>
<path d="M113.169 52.4399C113.554 52.7768 113.999 53.0364 114.481 53.2047C114.982 53.4006 115.515 53.504 116.053 53.5099C116.444 53.5215 116.833 53.4624 117.203 53.3355C117.343 53.2899 117.464 53.1986 117.546 53.076C117.629 52.9533 117.668 52.8065 117.658 52.6588C117.66 52.5323 117.627 52.4077 117.564 52.2987C117.472 52.1674 117.349 52.062 117.206 51.9926C116.972 51.874 116.729 51.7754 116.479 51.6978C116.168 51.5961 115.774 51.4799 115.297 51.3491C114.899 51.2455 114.511 51.1102 114.134 50.9444C113.767 50.7872 113.424 50.5779 113.115 50.3227C112.819 50.0761 112.576 49.7714 112.4 49.4271C112.213 49.0319 112.12 48.598 112.129 48.1602C112.139 47.7225 112.25 47.293 112.453 46.9062C112.679 46.511 112.986 46.1688 113.354 45.9026C113.767 45.6041 114.229 45.3823 114.72 45.2477C115.274 45.0914 115.846 45.0142 116.421 45.0183C117.191 45.0053 117.958 45.1046 118.699 45.3131C119.34 45.5054 119.947 45.7963 120.499 46.1755L119.18 48.2491C118.821 48.0161 118.439 47.8187 118.042 47.6596C117.583 47.4792 117.093 47.3903 116.6 47.3981C116.123 47.3981 115.775 47.4669 115.559 47.6047C115.46 47.6596 115.378 47.7404 115.321 47.8384C115.263 47.9365 115.234 48.0482 115.234 48.1619C115.234 48.4961 115.458 48.7432 115.906 48.903C116.355 49.0629 116.962 49.2451 117.727 49.4499C118.769 49.7405 119.524 50.1404 119.994 50.6497C120.463 51.1589 120.698 51.8356 120.698 52.6797C120.714 53.1932 120.583 53.7005 120.322 54.142C120.064 54.5546 119.715 54.9019 119.303 55.157C118.854 55.4353 118.363 55.638 117.85 55.7569C117.306 55.8878 116.75 55.9537 116.191 55.9531C115.317 55.9586 114.448 55.8337 113.611 55.5825C112.801 55.3355 112.142 54.9564 111.633 54.4452L113.169 52.4399Z" fill="#2C1B5B"/>
</g>
<defs>
<linearGradient id="paint0_linear_169_3888" x1="-0.249014" y1="42.0094" x2="40.407" y2="1.61579" gradientUnits="userSpaceOnUse">
<stop stop-color="#34F0B8"/>
<stop offset="1" stop-color="#49D9E6"/>
</linearGradient>
<clipPath id="clip0_169_3888">
<rect width="120" height="60" fill="white"/>
</clipPath>
</defs>
</svg>
